<mxfile host="app.diagrams.net" modified="2023-11-14T09:36:56.563Z" agent="Mozilla/5.0 (Windows NT 10.0; Win64; x64) AppleWebKit/537.36 (KHTML, like Gecko) Chrome/119.0.0.0 Safari/537.36" etag="lFlxR9NccXw5J8GwgeWP" version="22.1.0" type="github">
  <diagram name="Página-1" id="qKwDhnCiwPNc9SaC4BNa">
    <mxGraphModel dx="1050" dy="534" grid="1" gridSize="10" guides="1" tooltips="1" connect="1" arrows="1" fold="1" page="1" pageScale="1" pageWidth="827" pageHeight="1169" math="0" shadow="0">
      <root>
        <mxCell id="0" />
        <mxCell id="1" parent="0" />
        <mxCell id="YrviUOaYqMqXsFpp3-eg-1" value="Supongamos que queremos modelizar las prácticas que realizan los diferentes profesores/as que imparten el módulo de base de datos en el Azarquiel (si incluyera módulo en el modelo nos podría salir una relación a 4 y la liamos), vamos a exponer con más detalle la situación para poder afinar más nuestro modelo: Este curso imparten base de datos Fernando a VS1DAW y Julio a S1DAM Y S1DAW. Julio usa los apuntes de Fernando por lo que las prácticas a realizar son las mismas. Lo normal es que cada profesor se ciña a su grupo/s pero podría pasar que uno de los dos se pusiera malito y el otro cubriera la falta. No tiene sentido repetir una misma práctica a un mismo grupo. En un momento dado podría pasar que Fernando ya haya terminado dos prácticas y Julio siguiera contando sus historias. Cada grupo tendrá que hacer todas las prácticas del curso y son unas poquitas." style="text;html=1;strokeColor=none;fillColor=none;align=left;verticalAlign=middle;whiteSpace=wrap;rounded=0;fontSize=14;" vertex="1" parent="1">
          <mxGeometry x="29" y="40" width="770" height="140" as="geometry" />
        </mxCell>
      </root>
    </mxGraphModel>
  </diagram>
</mxfile>
